<svg xmlns="http://www.w3.org/2000/svg" xmlns:xlink="http://www.w3.org/1999/xlink" width="24" height="24" viewBox="0 0 24 24">
  <defs>
    <path id="calendar-a" d="M0,0 L18,0 L18,2 L0,2 L0,0 Z M0,11 L18,11 L18,13 L0,13 L0,11 Z"/>
    <path id="calendar-c" d="M2,7 L18,7 L18,4 L16,4 L16,2 L18,2 C19.1045695,2 20,2.8954305 20,4 L20,18 C20,19.1045695 19.1045695,20 18,20 L2,20 C0.8954305,20 0,19.1045695 0,18 L0,4 C0,2.8954305 0.8954305,2 2,2 L4,2 L4,4 L2,4 L2,7 Z M2,9 L2,18 L18,18 L18,9 L2,9 Z M7,4 C7,4.55228475 6.55228475,5 6,5 C5.44771525,5 5,4.55228475 5,4 L5,1 C5,0.44771525 5.44771525,0 6,0 C6.55228475,0 7,0.44771525 7,1 L7,4 Z M15,4 C15,4.55228475 14.5522847,5 14,5 C13.4477153,5 13,4.55228475 13,4 L13,1 C13,0.44771525 13.4477153,0 14,0 C14.5522847,0 15,0.44771525 15,1 L15,4 Z M8,2 L12,2 L12,4 L8,4 L8,2 Z M7,10 L9,10 L9,12 L7,12 L7,10 Z M11,10 L13,10 L13,12 L11,12 L11,10 Z M15,10 L17,10 L17,12 L15,12 L15,10 Z M3,14 L5,14 L5,16 L3,16 L3,14 Z M7,14 L9,14 L9,16 L7,16 L7,14 Z M11,14 L13,14 L13,16 L11,16 L11,14 Z M15,14 L17,14 L17,16 L15,16 L15,14 Z"/>
  </defs>
  <g fill="none" fill-rule="evenodd" transform="translate(2 2)">
    <g transform="translate(1 6)">
      <mask id="calendar-b" fill="#fff">
        <use xlink:href="#calendar-a"/>
      </mask>
      <use fill="#D8D8D8" xlink:href="#calendar-a"/>
      <g fill="#FFA0A0" mask="url(#calendar-b)">
        <rect width="24" height="24" transform="translate(-3 -8)"/>
      </g>
    </g>
    <mask id="calendar-d" fill="#fff">
      <use xlink:href="#calendar-c"/>
    </mask>
    <use fill="#000" fill-rule="nonzero" xlink:href="#calendar-c"/>
    <g fill="#7600FF" mask="url(#calendar-d)">
      <rect width="24" height="24" transform="translate(-2 -2)"/>
    </g>
  </g>
</svg>
